# xmcd
#
# Track frame offsets: 
#        150
#        14746
#        32029
#        51979
#        75144
#        89874
#        113515
#        132944
#        150384
#        165623
#        178164
#        196348
#        223010
#        243536
#        269871
#        291615
#        304224
#
# Disc length: 4192 seconds
#
# Revision: 0
# Processed by: cddbd v1.5.2PL0 Copyright (c) Steve Scherf et al.
# Submitted via: ExactAudioCopy v0.99pb5
#
DISCID=fd105e11
DTITLE=Magic Sam - Live 1969  Raw Blues!
DYEAR=2012
DGENRE=Blues
TTITLE0=San-Ho-Zay
TTITLE1=All Of Your Love
TTITLE2=You Don't Love Me
TTITLE3=You Were Wrong
TTITLE4=Mama, Talk To Your Daughter
TTITLE5=I Need You So Bad
TTITLE6=I Feel So Good
TTITLE7=Strange Things Happening
TTITLE8=Tremble
TTITLE9=That's All I Need
TTITLE10=I Don't Want No Woman
TTITLE11=I Got Papers On You, Baby
TTITLE12=Looking Good
TTITLE13=You Done Lost Your Good Thing Now
TTITLE14=Just Pickin'
TTITLE15=Hide Away
TTITLE16=Sweet Home Chicago
EXTD=
EXTT0=
EXTT1=
EXTT2=
EXTT3=
EXTT4=
EXTT5=
EXTT6=
EXTT7=
EXTT8=
EXTT9=
EXTT10=
EXTT11=
EXTT12=
EXTT13=
EXTT14=
EXTT15=
EXTT16=
PLAYORDER=
